<?xml version="1.0" encoding="UTF-8"?>
<!DOCTYPE svg PUBLIC "-//W3C//DTD SVG 1.1//EN" "http://www.w3.org/Graphics/SVG/1.1/DTD/svg11.dtd">
<svg xmlns="http://www.w3.org/2000/svg" version="1.1" width="50px" height="50px" style="shape-rendering:geometricPrecision; text-rendering:geometricPrecision; image-rendering:optimizeQuality; fill-rule:evenodd; clip-rule:evenodd" xmlns:xlink="http://www.w3.org/1999/xlink">
<g><path style="opacity:0.778" fill="#080808" d="M 7.5,-0.5 C 18.8333,-0.5 30.1667,-0.5 41.5,-0.5C 42.6787,2.37092 42.6787,5.20425 41.5,8C 42.8905,9.02003 44.3905,9.85336 46,10.5C 46.4828,11.448 46.6495,12.448 46.5,13.5C 43.8015,13.4661 41.3015,14.1328 39,15.5C 36.9306,20.5412 34.764,25.5412 32.5,30.5C 33.0736,32.0589 33.7402,33.5589 34.5,35C 34.1667,35.3333 33.8333,35.6667 33.5,36C 35.8713,36.7348 38.2046,37.5682 40.5,38.5C 41.3857,39.325 41.719,40.325 41.5,41.5C 35.7636,41.1886 32.7636,43.8552 32.5,49.5C 31.1667,49.5 29.8333,49.5 28.5,49.5C 28.0046,47.5183 27.5046,45.5183 27,43.5C 26.4275,45.6406 25.5942,47.6406 24.5,49.5C 20.5,49.5 16.5,49.5 12.5,49.5C 11.5269,47.9317 11.3603,46.265 12,44.5C 16.0229,34.2561 20.5229,24.2561 25.5,14.5C 24.5,13.6667 23.5,12.8333 22.5,12C 22.8333,11.6667 23.1667,11.3333 23.5,11C 18.5,10.6667 13.5,10.3333 8.5,10C 6.16047,6.76914 5.82714,3.26914 7.5,-0.5 Z"/></g>
<g><path style="opacity:1" fill="#c4c4c4" d="M 9.5,1.5 C 17.1667,1.5 24.8333,1.5 32.5,1.5C 32.1667,3.5 31.8333,5.5 31.5,7.5C 24.1667,7.5 16.8333,7.5 9.5,7.5C 9.5,5.5 9.5,3.5 9.5,1.5 Z"/></g>
<g><path style="opacity:0.948" fill="#bababa" d="M 36.5,1.5 C 37.5,1.5 38.5,1.5 39.5,1.5C 39.0821,10.6914 38.0821,10.6914 36.5,1.5 Z"/></g>
<g><path style="opacity:1" fill="#ababab" d="M 33.5,6.5 C 37.9472,9.05592 38.2805,12.0559 34.5,15.5C 33.5,13.8333 32.1667,12.5 30.5,11.5C 31.325,10.6143 32.325,10.281 33.5,10.5C 33.5,9.16667 33.5,7.83333 33.5,6.5 Z"/></g>
<g><path style="opacity:0.707" fill="#010101" d="M 12.5,11.5 C 13.4959,11.4142 14.3292,11.7476 15,12.5C 15.5717,15.707 17.405,17.3737 20.5,17.5C 20.8333,20.5 19.5,21.8333 16.5,21.5C 14.2023,29.1673 12.2023,29.1673 10.5,21.5C 7.5,21.8333 6.16667,20.5 6.5,17.5C 8.30839,17.5086 9.97506,17.0086 11.5,16C 11.1667,15.6667 10.8333,15.3333 10.5,15C 11.305,13.8873 11.9717,12.7206 12.5,11.5 Z"/></g>
<g><path style="opacity:1" fill="#c0c0c0" d="M 28.5,14.5 C 29.675,14.281 30.675,14.6143 31.5,15.5C 32.6538,18.1015 33.1538,20.7682 33,23.5C 30.8928,27.3806 29.0595,31.3806 27.5,35.5C 25.1667,36.8333 22.8333,38.1667 20.5,39.5C 21.8333,40.5 23.1667,41.5 24.5,42.5C 22.6881,46.8167 19.3548,48.4833 14.5,47.5C 18.8848,36.3951 23.5515,25.3951 28.5,14.5 Z"/></g>
<g><path style="opacity:1" fill="#656565" d="M 12.5,18.5 C 14.337,18.6395 14.6704,19.3061 13.5,20.5C 12.7025,20.0431 12.3691,19.3764 12.5,18.5 Z"/></g>
<g><path style="opacity:1" fill="#aeaeae" d="M 29.5,36.5 C 31.1344,37.2066 32.4677,38.3732 33.5,40C 32.2298,40.8996 31.2298,42.0663 30.5,43.5C 28.5528,41.3178 28.2194,38.9845 29.5,36.5 Z"/></g>
</svg>
