<?xml version="1.0" encoding="UTF-8"?>
<!DOCTYPE svg PUBLIC "-//W3C//DTD SVG 1.1//EN" "http://www.w3.org/Graphics/SVG/1.1/DTD/svg11.dtd">
<svg xmlns="http://www.w3.org/2000/svg" version="1.1" width="50px" height="50px" style="shape-rendering:geometricPrecision; text-rendering:geometricPrecision; image-rendering:optimizeQuality; fill-rule:evenodd; clip-rule:evenodd" xmlns:xlink="http://www.w3.org/1999/xlink">
<g><path style="opacity:0.607" fill="#000000" d="M 37.5,-0.5 C 40.1667,-0.5 42.8333,-0.5 45.5,-0.5C 47.0737,0.984169 48.407,2.65084 49.5,4.5C 49.5,6.83333 49.5,9.16667 49.5,11.5C 45.2227,16.6429 39.8894,18.3096 33.5,16.5C 27.7979,9.25984 29.1312,3.59318 37.5,-0.5 Z M 39.5,1.5 C 43.7301,0.831318 45.5634,2.49798 45,6.5C 40.7117,12.2579 36.2117,12.7579 31.5,8C 33.7761,5.21106 36.4427,3.0444 39.5,1.5 Z"/></g>
<g><path style="opacity:0.412" fill="#000000" d="M 18.5,4.5 C 18.7352,3.90326 19.2352,3.56993 20,3.5C 21.5,4.5 23,5.5 24.5,6.5C 20.9966,12.0376 18.33,11.7042 16.5,5.5C 18.4008,5.75351 19.0674,5.42018 18.5,4.5 Z"/></g>
<g><path style="opacity:0.588" fill="#000000" d="M 31.5,49.5 C 25.8333,49.5 20.1667,49.5 14.5,49.5C 14.1667,48.1667 13.8333,48.1667 13.5,49.5C 8.83333,49.5 4.16667,49.5 -0.5,49.5C -0.5,48.1667 -0.5,46.8333 -0.5,45.5C 0.875431,38.7112 1.5421,31.7112 1.5,24.5C 6.3222,23.9347 10.8222,24.6013 15,26.5C 18.9717,23.5617 21.1384,19.5617 21.5,14.5C 24.2385,13.9648 26.0718,14.9648 27,17.5C 27.7415,20.562 27.5748,23.562 26.5,26.5C 30.5111,27.0306 34.3444,28.0306 38,29.5C 38.6667,30.8333 38.6667,32.1667 38,33.5C 37.0536,35.7883 35.8869,37.955 34.5,40C 34.9574,40.414 35.2907,40.914 35.5,41.5C 34.1652,44.1984 32.8319,46.865 31.5,49.5 Z M 23.5,17.5 C 24.6341,19.9664 24.8007,22.633 24,25.5C 22.117,26.6526 21.2837,28.3193 21.5,30.5C 26.2137,30.1734 30.8804,30.5067 35.5,31.5C 34.675,32.3857 33.675,32.719 32.5,32.5C 32.3601,34.1238 33.0267,35.2904 34.5,36C 33.2412,36.9234 31.9079,37.7568 30.5,38.5C 33.0505,41.0356 32.3838,42.7023 28.5,43.5C 29.1667,44.1667 29.8333,44.8333 30.5,45.5C 24.8625,46.6632 19.1959,46.8299 13.5,46C 14.4749,40.2588 14.8082,34.4254 14.5,28.5C 16.5824,28.528 18.4157,27.8613 20,26.5C 21.7411,23.6907 22.9078,20.6907 23.5,17.5 Z M 4.5,27.5 C 6.83333,27.5 9.16667,27.5 11.5,27.5C 11.5,34.1667 11.5,40.8333 11.5,47.5C 8.42814,47.8174 5.42814,47.4841 2.5,46.5C 3,45.5 3.5,44.5 4,43.5C 6.3586,47.5036 8.52527,47.3369 10.5,43C 8.47319,38.9159 6.30652,38.7493 4,42.5C 3.6117,37.4893 3.77836,32.4893 4.5,27.5 Z"/></g>
<g><path style="opacity:0.492" fill="#000000" d="M 43.5,27.5 C 45.0481,27.8212 45.7148,28.8212 45.5,30.5C 49.5,31.1667 49.5,31.8333 45.5,32.5C 44.8333,36.5 44.1667,36.5 43.5,32.5C 39.5,31.8333 39.5,31.1667 43.5,30.5C 43.5,29.5 43.5,28.5 43.5,27.5 Z"/></g>
</svg>
